<svg xmlns="http://www.w3.org/2000/svg" xmlns:xlink="http://www.w3.org/1999/xlink" preserveAspectRatio="xMidYMid" width="2000" height="1047.56" viewBox="0 0 2000 1047.56">
  <defs>
    <style>
      .cls-1 {
        fill: #fafafa;
        fill-rule: evenodd;
      }
    </style>
  </defs>
  <path d="M2041.118,51.904 L2105.451,398.832 L1772.924,280.994 L2041.118,51.904 ZM1857.866,444.085 L2105.641,521.001 L1915.143,697.123 L1857.866,444.085 ZM2105.000,1047.559 L1721.240,937.124 L2008.760,659.996 L2105.000,1047.559 ZM1465.866,215.085 L1713.641,292.001 L1523.143,468.123 L1465.866,215.085 ZM421.866,532.085 L669.641,609.001 L479.143,785.123 L421.866,532.085 ZM213.426,496.557 L330.505,589.885 L191.143,644.588 L213.426,496.557 ZM203.760,-0.004 L300.000,387.560 L-83.760,277.124 L203.760,-0.004 ZM146.291,405.112 L159.357,734.439 L188.272,706.558 L261.000,999.560 L-29.008,916.069 L101.253,790.466 L-207.063,628.399 L146.291,405.112 ZM1587.706,687.663 L1513.359,669.018 L1567.076,614.022 L1587.706,687.663 Z" class="cls-1"/>
</svg>
