<svg xmlns="http://www.w3.org/2000/svg" xmlns:xlink="http://www.w3.org/1999/xlink" preserveAspectRatio="xMidYMid" width="2000" height="1423" viewBox="0 0 2000 1423">
  <defs>
    <style>
      .cls-1 {
        fill: #f8f8f8;
        opacity: 0.75;
        fill-rule: evenodd;
      }
    </style>
  </defs>
  <path d="M2458.000,736.000 L2458.000,1193.000 L2348.000,1193.000 L2348.000,1422.999 C2348.000,1422.999 2147.002,1422.999 1922.159,1422.999 C1636.786,1422.999 1148.000,1412.544 1148.000,1412.544 L1581.585,1000.766 L1288.325,722.255 C1248.130,721.422 1225.000,720.911 1225.000,720.911 L1703.049,252.079 L1456.000,17.455 C1456.000,17.455 1704.664,12.136 1950.820,9.086 L1960.085,-0.000 L2902.000,-0.000 L2902.000,736.000 C2902.000,736.000 2705.835,736.000 2458.000,736.000 ZM286.841,1402.000 C61.998,1402.000 -139.000,1402.000 -139.000,1402.000 L-139.000,1192.000 L-405.000,1192.000 L-405.000,724.000 C-542.401,724.000 -642.000,724.000 -642.000,724.000 L-642.000,532.000 L-674.000,532.000 L-674.000,22.000 C-674.000,22.000 -662.513,22.000 -642.000,22.000 L-248.159,22.000 L32.000,22.000 L33.619,24.116 C278.975,27.171 526.000,32.456 526.000,32.456 L244.504,299.793 L541.217,687.668 C686.158,690.127 795.000,692.455 795.000,692.455 L559.944,915.689 L1061.000,1391.544 C1061.000,1391.544 572.214,1402.000 286.841,1402.000 Z" class="cls-1"/>
</svg>
